<svg width="208" height="48" viewBox="0 0 208 48" fill="none" xmlns="http://www.w3.org/2000/svg">
<g filter="url(#filter0_d_4_4)">
<path d="M15.7041 24.4961V7.82812H21.083V24.4961C21.083 26.112 20.7178 27.5065 19.9873 28.6797C19.2679 29.8418 18.2884 30.7438 17.0488 31.3857C15.8203 32.0166 14.4313 32.332 12.8818 32.332C11.2881 32.332 9.87142 32.0664 8.63184 31.5352C7.39225 30.9928 6.41829 30.1683 5.70996 29.0615C5.0127 27.9437 4.66406 26.5215 4.66406 24.7949H10.0762C10.0762 25.6471 10.1813 26.3223 10.3916 26.8203C10.613 27.3073 10.9339 27.6504 11.3545 27.8496C11.7751 28.0488 12.2842 28.1484 12.8818 28.1484C13.4574 28.1484 13.9554 28.0101 14.376 27.7334C14.7965 27.4456 15.123 27.0306 15.3555 26.4883C15.5879 25.9349 15.7041 25.2708 15.7041 24.4961ZM37.0471 14.0371V32H31.8508V14.0371H37.0471ZM31.5354 9.38867C31.5354 8.63607 31.801 8.02181 32.3322 7.5459C32.8635 7.05892 33.5607 6.81543 34.424 6.81543C35.2873 6.81543 35.9846 7.05892 36.5158 7.5459C37.0581 8.02181 37.3293 8.63607 37.3293 9.38867C37.3293 10.1302 37.0581 10.7445 36.5158 11.2314C35.9846 11.7074 35.2873 11.9453 34.424 11.9453C33.5607 11.9453 32.8635 11.7074 32.3322 11.2314C31.801 10.7445 31.5354 10.1302 31.5354 9.38867ZM52.6625 17.8721V32H47.4662V14.0371H52.3471L52.6625 17.8721ZM51.9818 22.3877L50.6869 22.4209C50.6869 21.0706 50.8529 19.8587 51.185 18.7852C51.517 17.7116 51.9874 16.7985 52.5961 16.0459C53.2159 15.2822 53.9519 14.7012 54.8041 14.3027C55.6674 13.9043 56.6192 13.7051 57.6596 13.7051C58.5007 13.7051 59.2699 13.8268 59.9672 14.0703C60.6645 14.3138 61.2621 14.7067 61.7602 15.249C62.2693 15.7803 62.6566 16.4886 62.9223 17.374C63.1879 18.2484 63.3207 19.3275 63.3207 20.6113V32H58.1078V20.5947C58.1078 19.8421 58.0027 19.2611 57.7924 18.8516C57.5821 18.4421 57.2722 18.1543 56.8627 17.9883C56.4643 17.8223 55.9773 17.7393 55.4018 17.7393C54.793 17.7393 54.2729 17.861 53.8412 18.1045C53.4096 18.3369 53.0554 18.6634 52.7787 19.084C52.502 19.5046 52.2973 19.9971 52.1645 20.5615C52.0427 21.126 51.9818 21.7347 51.9818 22.3877ZM84.8297 14.0371H89.5445V31.3525C89.5445 33.0016 89.1682 34.4017 88.4156 35.5527C87.6741 36.7038 86.6393 37.5781 85.3111 38.1758C83.983 38.7734 82.428 39.0723 80.6461 39.0723C79.8714 39.0723 79.0634 38.9671 78.2223 38.7568C77.3811 38.5576 76.5898 38.2533 75.8482 37.8438C75.1067 37.4453 74.4869 36.9362 73.9889 36.3164L76.1969 33.2617C76.706 33.8372 77.3147 34.3021 78.023 34.6562C78.7314 35.0215 79.5393 35.2041 80.4469 35.2041C81.277 35.2041 81.9798 35.0547 82.5553 34.7559C83.1308 34.457 83.568 34.0199 83.8668 33.4443C84.1767 32.8688 84.3316 32.1715 84.3316 31.3525V18.2373L84.8297 14.0371ZM72.8268 23.2344V22.8857C72.8268 21.5244 72.9928 20.2848 73.3248 19.167C73.6568 18.0381 74.1383 17.0697 74.7691 16.2617C75.4111 15.4427 76.1803 14.8118 77.0768 14.3691C77.9843 13.9264 79.0025 13.7051 80.1314 13.7051C81.3489 13.7051 82.3561 13.9375 83.1529 14.4023C83.9498 14.8561 84.5973 15.498 85.0953 16.3281C85.5934 17.1471 85.9863 18.1156 86.274 19.2334C86.5618 20.3402 86.7942 21.541 86.9713 22.8359V23.4336C86.7942 24.6732 86.5396 25.8298 86.2076 26.9033C85.8756 27.9769 85.4439 28.9232 84.9127 29.7422C84.3814 30.5501 83.7174 31.1865 82.9205 31.6514C82.1347 32.1051 81.1939 32.332 80.0982 32.332C78.9804 32.332 77.9732 32.1051 77.0768 31.6514C76.1803 31.1976 75.4111 30.5612 74.7691 29.7422C74.1383 28.9232 73.6568 27.9603 73.3248 26.8535C72.9928 25.7467 72.8268 24.5404 72.8268 23.2344ZM78.0064 22.8857V23.2344C78.0064 23.9427 78.0729 24.6012 78.2057 25.21C78.3495 25.8187 78.5598 26.3555 78.8365 26.8203C79.1243 27.2852 79.4785 27.6504 79.899 27.916C80.3307 28.1706 80.8342 28.2979 81.4098 28.2979C82.2509 28.2979 82.9316 28.1208 83.4518 27.7666C83.983 27.4014 84.3704 26.8978 84.6139 26.2559C84.8684 25.6139 85.0012 24.8669 85.0123 24.0146V22.2715C85.0123 21.5632 84.9404 20.9268 84.7965 20.3623C84.6526 19.7979 84.4368 19.3219 84.149 18.9346C83.8723 18.5472 83.5071 18.2539 83.0533 18.0547C82.6106 17.8444 82.0738 17.7393 81.443 17.7393C80.8785 17.7393 80.3805 17.8721 79.9488 18.1377C79.5172 18.3923 79.1575 18.752 78.8697 19.2168C78.582 19.6816 78.3661 20.2295 78.2223 20.8604C78.0784 21.4801 78.0064 22.1553 78.0064 22.8857Z" fill="black"/>
</g>
<g filter="url(#filter1_d_4_4)">
<path d="M116.574 7.82812L120.824 16.0625L125.074 7.82812H131.25L124.377 19.8145L131.433 32H125.207L120.824 23.6162L116.458 32H110.216L117.288 19.8145L110.398 7.82812H116.574ZM145.637 14.0371V32H140.441V14.0371H145.637ZM140.125 9.38867C140.125 8.63607 140.391 8.02181 140.922 7.5459C141.453 7.05892 142.151 6.81543 143.014 6.81543C143.877 6.81543 144.574 7.05892 145.106 7.5459C145.648 8.02181 145.919 8.63607 145.919 9.38867C145.919 10.1302 145.648 10.7445 145.106 11.2314C144.574 11.7074 143.877 11.9453 143.014 11.9453C142.151 11.9453 141.453 11.7074 140.922 11.2314C140.391 10.7445 140.125 10.1302 140.125 9.38867ZM165.685 27.7168V20.0137C165.685 19.4714 165.602 19.0065 165.436 18.6191C165.27 18.2318 165.01 17.9274 164.656 17.7061C164.301 17.4847 163.842 17.374 163.278 17.374C162.802 17.374 162.387 17.457 162.033 17.623C161.69 17.7891 161.424 18.027 161.236 18.3369C161.059 18.6468 160.97 19.0286 160.97 19.4824H155.79C155.79 18.6745 155.973 17.9219 156.338 17.2246C156.704 16.5273 157.224 15.9131 157.899 15.3818C158.585 14.8506 159.404 14.4411 160.356 14.1533C161.308 13.8545 162.376 13.7051 163.56 13.7051C164.966 13.7051 166.216 13.943 167.312 14.4189C168.419 14.8838 169.293 15.5866 169.935 16.5273C170.577 17.457 170.898 18.6302 170.898 20.0469V27.5674C170.898 28.652 170.959 29.5042 171.08 30.124C171.213 30.7327 171.401 31.264 171.645 31.7178V32H166.415C166.172 31.4798 165.989 30.8379 165.868 30.0742C165.746 29.2995 165.685 28.5137 165.685 27.7168ZM166.332 21.043L166.366 23.8984H163.792C163.217 23.8984 162.719 23.9704 162.298 24.1143C161.889 24.2581 161.557 24.4574 161.302 24.7119C161.048 24.9554 160.859 25.2432 160.738 25.5752C160.627 25.8962 160.572 26.2503 160.572 26.6377C160.572 27.0029 160.66 27.335 160.837 27.6338C161.014 27.9215 161.258 28.1484 161.568 28.3145C161.878 28.4805 162.237 28.5635 162.647 28.5635C163.322 28.5635 163.898 28.4307 164.373 28.165C164.86 27.8994 165.237 27.5785 165.502 27.2021C165.768 26.8148 165.901 26.4551 165.901 26.123L167.146 28.2812C166.947 28.724 166.703 29.1833 166.415 29.6592C166.128 30.124 165.762 30.5612 165.32 30.9707C164.877 31.3691 164.34 31.6956 163.709 31.9502C163.09 32.2048 162.343 32.332 161.468 32.332C160.339 32.332 159.315 32.1051 158.397 31.6514C157.478 31.1865 156.742 30.5501 156.189 29.7422C155.647 28.9342 155.375 28.0046 155.375 26.9531C155.375 26.0124 155.547 25.1768 155.89 24.4463C156.233 23.7158 156.748 23.096 157.434 22.5869C158.131 22.0778 159.006 21.696 160.057 21.4414C161.108 21.1758 162.337 21.043 163.743 21.043H166.332ZM180.354 23.2012V22.8525C180.354 21.5355 180.542 20.3236 180.919 19.2168C181.295 18.099 181.848 17.1305 182.579 16.3115C183.309 15.4925 184.206 14.8561 185.268 14.4023C186.331 13.9375 187.548 13.7051 188.921 13.7051C190.315 13.7051 191.544 13.9375 192.606 14.4023C193.68 14.8561 194.582 15.4925 195.312 16.3115C196.043 17.1305 196.596 18.099 196.972 19.2168C197.349 20.3236 197.537 21.5355 197.537 22.8525V23.2012C197.537 24.5072 197.349 25.7191 196.972 26.8369C196.596 27.9437 196.043 28.9121 195.312 29.7422C194.582 30.5612 193.685 31.1976 192.623 31.6514C191.56 32.1051 190.337 32.332 188.954 32.332C187.581 32.332 186.358 32.1051 185.285 31.6514C184.211 31.1976 183.309 30.5612 182.579 29.7422C181.848 28.9121 181.295 27.9437 180.919 26.8369C180.542 25.7191 180.354 24.5072 180.354 23.2012ZM185.55 22.8525V23.2012C185.55 23.9095 185.606 24.5736 185.716 25.1934C185.838 25.8132 186.032 26.3555 186.297 26.8203C186.563 27.2852 186.912 27.6504 187.343 27.916C187.786 28.1706 188.323 28.2979 188.954 28.2979C189.585 28.2979 190.116 28.1706 190.547 27.916C190.979 27.6504 191.328 27.2852 191.593 26.8203C191.859 26.3555 192.047 25.8132 192.158 25.1934C192.28 24.5736 192.34 23.9095 192.34 23.2012V22.8525C192.34 22.1553 192.28 21.5023 192.158 20.8936C192.047 20.2738 191.859 19.7259 191.593 19.25C191.328 18.7741 190.974 18.4033 190.531 18.1377C190.099 17.8721 189.562 17.7393 188.921 17.7393C188.301 17.7393 187.775 17.8721 187.343 18.1377C186.912 18.4033 186.563 18.7741 186.297 19.25C186.032 19.7259 185.838 20.2738 185.716 20.8936C185.606 21.5023 185.55 22.1553 185.55 22.8525Z" fill="#E9B949"/>
</g>
<defs>
<filter id="filter0_d_4_4" x="0.664062" y="6.81543" width="92.8805" height="40.2568" filterUnits="userSpaceOnUse" color-interpolation-filters="sRGB">
<feFlood flood-opacity="0" result="BackgroundImageFix"/>
<feColorMatrix in="SourceAlpha" type="matrix" values="0 0 0 0 0 0 0 0 0 0 0 0 0 0 0 0 0 0 127 0" result="hardAlpha"/>
<feOffset dy="4"/>
<feGaussianBlur stdDeviation="2"/>
<feComposite in2="hardAlpha" operator="out"/>
<feColorMatrix type="matrix" values="0 0 0 0 0 0 0 0 0 0 0 0 0 0 0 0 0 0 0.25 0"/>
<feBlend mode="normal" in2="BackgroundImageFix" result="effect1_dropShadow_4_4"/>
<feBlend mode="normal" in="SourceGraphic" in2="effect1_dropShadow_4_4" result="shape"/>
</filter>
<filter id="filter1_d_4_4" x="106.216" y="6.81543" width="95.3209" height="33.5166" filterUnits="userSpaceOnUse" color-interpolation-filters="sRGB">
<feFlood flood-opacity="0" result="BackgroundImageFix"/>
<feColorMatrix in="SourceAlpha" type="matrix" values="0 0 0 0 0 0 0 0 0 0 0 0 0 0 0 0 0 0 127 0" result="hardAlpha"/>
<feOffset dy="4"/>
<feGaussianBlur stdDeviation="2"/>
<feComposite in2="hardAlpha" operator="out"/>
<feColorMatrix type="matrix" values="0 0 0 0 0 0 0 0 0 0 0 0 0 0 0 0 0 0 0.25 0"/>
<feBlend mode="normal" in2="BackgroundImageFix" result="effect1_dropShadow_4_4"/>
<feBlend mode="normal" in="SourceGraphic" in2="effect1_dropShadow_4_4" result="shape"/>
</filter>
</defs>
</svg>
